<mxfile host="Electron" agent="Mozilla/5.0 (Macintosh; Intel Mac OS X 10_15_7) AppleWebKit/537.36 (KHTML, like Gecko) draw.io/24.7.8 Chrome/128.0.6613.36 Electron/32.0.1 Safari/537.36" version="24.7.8">
  <diagram name="Page-1" id="IHh1EI70qDOlGkVvRBp9">
    <mxGraphModel dx="1114" dy="865" grid="1" gridSize="10" guides="1" tooltips="1" connect="1" arrows="1" fold="1" page="1" pageScale="1" pageWidth="850" pageHeight="1100" math="0" shadow="0">
      <root>
        <mxCell id="0" />
        <mxCell id="1" parent="0" />
        <mxCell id="Qx1lMFqdCtpD-lmvuORk-3" value="" style="edgeStyle=orthogonalEdgeStyle;rounded=0;orthogonalLoop=1;jettySize=auto;html=1;" edge="1" parent="1" source="Qx1lMFqdCtpD-lmvuORk-1" target="Qx1lMFqdCtpD-lmvuORk-2">
          <mxGeometry relative="1" as="geometry" />
        </mxCell>
        <mxCell id="Qx1lMFqdCtpD-lmvuORk-4" value="PCIe x1" style="edgeLabel;html=1;align=center;verticalAlign=middle;resizable=0;points=[];" vertex="1" connectable="0" parent="Qx1lMFqdCtpD-lmvuORk-3">
          <mxGeometry x="-0.18" y="-2" relative="1" as="geometry">
            <mxPoint y="-2" as="offset" />
          </mxGeometry>
        </mxCell>
        <mxCell id="Qx1lMFqdCtpD-lmvuORk-1" value="M.2 Key M&lt;br&gt;edge connector" style="rounded=0;whiteSpace=wrap;html=1;" vertex="1" parent="1">
          <mxGeometry x="20" y="410" width="120" height="60" as="geometry" />
        </mxCell>
        <mxCell id="Qx1lMFqdCtpD-lmvuORk-6" value="" style="edgeStyle=orthogonalEdgeStyle;rounded=0;orthogonalLoop=1;jettySize=auto;html=1;exitX=1;exitY=0.25;exitDx=0;exitDy=0;" edge="1" parent="1" source="Qx1lMFqdCtpD-lmvuORk-2" target="Qx1lMFqdCtpD-lmvuORk-5">
          <mxGeometry relative="1" as="geometry">
            <Array as="points">
              <mxPoint x="390" y="395" />
              <mxPoint x="390" y="320" />
            </Array>
          </mxGeometry>
        </mxCell>
        <mxCell id="Qx1lMFqdCtpD-lmvuORk-28" value="USB 2.0" style="edgeLabel;html=1;align=center;verticalAlign=middle;resizable=0;points=[];" vertex="1" connectable="0" parent="Qx1lMFqdCtpD-lmvuORk-6">
          <mxGeometry x="0.5707" y="2" relative="1" as="geometry">
            <mxPoint y="2" as="offset" />
          </mxGeometry>
        </mxCell>
        <mxCell id="Qx1lMFqdCtpD-lmvuORk-9" value="" style="edgeStyle=orthogonalEdgeStyle;rounded=0;orthogonalLoop=1;jettySize=auto;html=1;exitX=1;exitY=0.389;exitDx=0;exitDy=0;exitPerimeter=0;" edge="1" parent="1" source="Qx1lMFqdCtpD-lmvuORk-2" target="Qx1lMFqdCtpD-lmvuORk-7">
          <mxGeometry relative="1" as="geometry">
            <Array as="points">
              <mxPoint x="400" y="420" />
              <mxPoint x="400" y="390" />
            </Array>
          </mxGeometry>
        </mxCell>
        <mxCell id="Qx1lMFqdCtpD-lmvuORk-27" value="USB 2.0" style="edgeLabel;html=1;align=center;verticalAlign=middle;resizable=0;points=[];" vertex="1" connectable="0" parent="Qx1lMFqdCtpD-lmvuORk-9">
          <mxGeometry x="0.4375" y="-4" relative="1" as="geometry">
            <mxPoint x="-5" y="-4" as="offset" />
          </mxGeometry>
        </mxCell>
        <mxCell id="Qx1lMFqdCtpD-lmvuORk-13" value="" style="edgeStyle=orthogonalEdgeStyle;rounded=0;orthogonalLoop=1;jettySize=auto;html=1;" edge="1" parent="1" source="Qx1lMFqdCtpD-lmvuORk-2" target="Qx1lMFqdCtpD-lmvuORk-12">
          <mxGeometry relative="1" as="geometry">
            <Array as="points">
              <mxPoint x="400" y="440" />
              <mxPoint x="400" y="470" />
            </Array>
          </mxGeometry>
        </mxCell>
        <mxCell id="Qx1lMFqdCtpD-lmvuORk-25" value="USB 2.0" style="edgeLabel;html=1;align=center;verticalAlign=middle;resizable=0;points=[];" vertex="1" connectable="0" parent="Qx1lMFqdCtpD-lmvuORk-13">
          <mxGeometry x="0.25" y="-2" relative="1" as="geometry">
            <mxPoint x="10" y="-2" as="offset" />
          </mxGeometry>
        </mxCell>
        <mxCell id="Qx1lMFqdCtpD-lmvuORk-2" value="PCIe to 4x USB 2.0 bridge" style="rounded=0;whiteSpace=wrap;html=1;" vertex="1" parent="1">
          <mxGeometry x="240" y="350" width="120" height="180" as="geometry" />
        </mxCell>
        <mxCell id="Qx1lMFqdCtpD-lmvuORk-19" value="" style="edgeStyle=orthogonalEdgeStyle;rounded=0;orthogonalLoop=1;jettySize=auto;html=1;" edge="1" parent="1" source="Qx1lMFqdCtpD-lmvuORk-5" target="Qx1lMFqdCtpD-lmvuORk-18">
          <mxGeometry relative="1" as="geometry" />
        </mxCell>
        <mxCell id="Qx1lMFqdCtpD-lmvuORk-30" value="MMC" style="edgeLabel;html=1;align=center;verticalAlign=middle;resizable=0;points=[];" vertex="1" connectable="0" parent="Qx1lMFqdCtpD-lmvuORk-19">
          <mxGeometry x="0.1" y="-1" relative="1" as="geometry">
            <mxPoint x="-4" y="-1" as="offset" />
          </mxGeometry>
        </mxCell>
        <mxCell id="Qx1lMFqdCtpD-lmvuORk-5" value="eMMC memory controller" style="whiteSpace=wrap;html=1;rounded=0;" vertex="1" parent="1">
          <mxGeometry x="490" y="280" width="120" height="60" as="geometry" />
        </mxCell>
        <mxCell id="Qx1lMFqdCtpD-lmvuORk-21" value="" style="edgeStyle=orthogonalEdgeStyle;rounded=0;orthogonalLoop=1;jettySize=auto;html=1;" edge="1" parent="1" source="Qx1lMFqdCtpD-lmvuORk-7" target="Qx1lMFqdCtpD-lmvuORk-20">
          <mxGeometry relative="1" as="geometry" />
        </mxCell>
        <mxCell id="Qx1lMFqdCtpD-lmvuORk-29" value="SDIO" style="edgeLabel;html=1;align=center;verticalAlign=middle;resizable=0;points=[];" vertex="1" connectable="0" parent="Qx1lMFqdCtpD-lmvuORk-21">
          <mxGeometry x="-0.1" relative="1" as="geometry">
            <mxPoint x="4" as="offset" />
          </mxGeometry>
        </mxCell>
        <mxCell id="Qx1lMFqdCtpD-lmvuORk-7" value="micro SD card controller" style="whiteSpace=wrap;html=1;rounded=0;" vertex="1" parent="1">
          <mxGeometry x="490" y="360" width="120" height="60" as="geometry" />
        </mxCell>
        <mxCell id="Qx1lMFqdCtpD-lmvuORk-23" value="" style="edgeStyle=orthogonalEdgeStyle;rounded=0;orthogonalLoop=1;jettySize=auto;html=1;" edge="1" parent="1" source="Qx1lMFqdCtpD-lmvuORk-12" target="Qx1lMFqdCtpD-lmvuORk-22">
          <mxGeometry relative="1" as="geometry" />
        </mxCell>
        <mxCell id="Qx1lMFqdCtpD-lmvuORk-24" value="UART" style="edgeLabel;html=1;align=center;verticalAlign=middle;resizable=0;points=[];" vertex="1" connectable="0" parent="Qx1lMFqdCtpD-lmvuORk-23">
          <mxGeometry x="-0.225" relative="1" as="geometry">
            <mxPoint x="9" as="offset" />
          </mxGeometry>
        </mxCell>
        <mxCell id="Qx1lMFqdCtpD-lmvuORk-12" value="USB UART bridge" style="whiteSpace=wrap;html=1;rounded=0;" vertex="1" parent="1">
          <mxGeometry x="490" y="440" width="120" height="60" as="geometry" />
        </mxCell>
        <mxCell id="Qx1lMFqdCtpD-lmvuORk-16" value="" style="edgeStyle=orthogonalEdgeStyle;rounded=0;orthogonalLoop=1;jettySize=auto;html=1;exitX=1;exitY=0.75;exitDx=0;exitDy=0;" edge="1" parent="1" target="Qx1lMFqdCtpD-lmvuORk-17" source="Qx1lMFqdCtpD-lmvuORk-2">
          <mxGeometry relative="1" as="geometry">
            <mxPoint x="360" y="520" as="sourcePoint" />
            <Array as="points">
              <mxPoint x="390" y="485" />
              <mxPoint x="390" y="550" />
            </Array>
          </mxGeometry>
        </mxCell>
        <mxCell id="Qx1lMFqdCtpD-lmvuORk-26" value="USB 2.0" style="edgeLabel;html=1;align=center;verticalAlign=middle;resizable=0;points=[];" vertex="1" connectable="0" parent="Qx1lMFqdCtpD-lmvuORk-16">
          <mxGeometry x="0.2821" y="-1" relative="1" as="geometry">
            <mxPoint x="20" y="-1" as="offset" />
          </mxGeometry>
        </mxCell>
        <mxCell id="Qx1lMFqdCtpD-lmvuORk-17" value="802.11n wireless network controller" style="whiteSpace=wrap;html=1;rounded=0;" vertex="1" parent="1">
          <mxGeometry x="490" y="520" width="120" height="60" as="geometry" />
        </mxCell>
        <mxCell id="Qx1lMFqdCtpD-lmvuORk-18" value="eMMC flash&lt;br&gt;memory" style="whiteSpace=wrap;html=1;rounded=0;" vertex="1" parent="1">
          <mxGeometry x="690" y="280" width="120" height="60" as="geometry" />
        </mxCell>
        <mxCell id="Qx1lMFqdCtpD-lmvuORk-20" value="micro SD card&lt;br&gt;reader" style="whiteSpace=wrap;html=1;rounded=0;" vertex="1" parent="1">
          <mxGeometry x="690" y="360" width="120" height="60" as="geometry" />
        </mxCell>
        <mxCell id="Qx1lMFqdCtpD-lmvuORk-22" value="ZigBee / Thread&lt;br&gt;RF SoC" style="whiteSpace=wrap;html=1;rounded=0;" vertex="1" parent="1">
          <mxGeometry x="690" y="440" width="120" height="60" as="geometry" />
        </mxCell>
      </root>
    </mxGraphModel>
  </diagram>
</mxfile>
